<?xml version="1.0" encoding="UTF-8" standalone="no"?>
<!-- Created with Inkscape (http://www.inkscape.org/) -->

<svg
   xmlns:dc="http://purl.org/dc/elements/1.1/"
   xmlns:cc="http://creativecommons.org/ns#"
   xmlns:rdf="http://www.w3.org/1999/02/22-rdf-syntax-ns#"
   xmlns:svg="http://www.w3.org/2000/svg"
   xmlns="http://www.w3.org/2000/svg"
   xmlns:sodipodi="http://sodipodi.sourceforge.net/DTD/sodipodi-0.dtd"
   xmlns:inkscape="http://www.inkscape.org/namespaces/inkscape"
   width="48pt"
   height="48pt"
   viewBox="0 0 16.933334 16.933333"
   version="1.1"
   id="svg979"
   inkscape:version="0.92.4 (5da689c313, 2019-01-14)"
   sodipodi:docname="2 - Profit.svg"
   inkscape:export-filename="E:\TR Design Studio Creative\Project Design\TR Creative Design\Icon Design\Project Hiring\Icon Icons\003 - Business And Finance\Line\Export\1 - Investment.png"
   inkscape:export-xdpi="768"
   inkscape:export-ydpi="768">
  <defs
     id="defs973" />
  <sodipodi:namedview
     id="base"
     pagecolor="#ffffff"
     bordercolor="#666666"
     borderopacity="1.0"
     inkscape:pageopacity="0.0"
     inkscape:pageshadow="2"
     inkscape:zoom="8.546875"
     inkscape:cx="32"
     inkscape:cy="32"
     inkscape:document-units="pt"
     inkscape:current-layer="layer1"
     showgrid="false"
     units="pt"
     inkscape:window-width="1366"
     inkscape:window-height="716"
     inkscape:window-x="-8"
     inkscape:window-y="-8"
     inkscape:window-maximized="1"
     inkscape:snap-bbox="true"
     inkscape:bbox-nodes="true"
     inkscape:snap-nodes="false"
     showguides="false">
    <inkscape:grid
       type="xygrid"
       id="grid1526" />
    <sodipodi:guide
       position="0.97013909,15.963209"
       orientation="56.666615,0"
       id="guide1528"
       inkscape:locked="false" />
    <sodipodi:guide
       position="0.97013909,0.97016731"
       orientation="0,56.666667"
       id="guide1530"
       inkscape:locked="false" />
    <sodipodi:guide
       position="15.963195,0.97016731"
       orientation="-56.666615,0"
       id="guide1532"
       inkscape:locked="false" />
    <sodipodi:guide
       position="15.963195,15.963209"
       orientation="0,-56.666667"
       id="guide1534"
       inkscape:locked="false" />
  </sodipodi:namedview>
  <metadata
     id="metadata976">
    <rdf:RDF>
      <cc:Work
         rdf:about="">
        <dc:format>image/svg+xml</dc:format>
        <dc:type
           rdf:resource="http://purl.org/dc/dcmitype/StillImage" />
        <dc:title></dc:title>
      </cc:Work>
    </rdf:RDF>
  </metadata>
  <g
     inkscape:label="Layer 1"
     inkscape:groupmode="layer"
     id="layer1"
     transform="translate(0,-280.06668)">
    <path
       style="color:#000000;font-style:normal;font-variant:normal;font-weight:normal;font-stretch:normal;font-size:medium;line-height:normal;font-family:sans-serif;font-variant-ligatures:normal;font-variant-position:normal;font-variant-caps:normal;font-variant-numeric:normal;font-variant-alternates:normal;font-feature-settings:normal;text-indent:0;text-align:start;text-decoration:none;text-decoration-line:none;text-decoration-style:solid;text-decoration-color:#000000;letter-spacing:normal;word-spacing:normal;text-transform:none;writing-mode:lr-tb;direction:ltr;text-orientation:mixed;dominant-baseline:auto;baseline-shift:baseline;text-anchor:start;white-space:normal;shape-padding:0;clip-rule:nonzero;display:inline;overflow:visible;visibility:visible;opacity:1;isolation:auto;mix-blend-mode:normal;color-interpolation:sRGB;color-interpolation-filters:linearRGB;solid-color:#000000;solid-opacity:1;vector-effect:none;fill:#000000;fill-opacity:1;fill-rule:nonzero;stroke:none;stroke-width:0.529167;stroke-linecap:round;stroke-linejoin:round;stroke-miterlimit:4;stroke-dasharray:none;stroke-dashoffset:0;stroke-opacity:1;paint-order:markers fill stroke;color-rendering:auto;image-rendering:auto;shape-rendering:auto;text-rendering:auto;enable-background:accumulate"
       d="m 8.1356605,281.03686 c -0.1072642,0.001 -0.2070006,0.0554 -0.2667091,0.1445 l -2.6053489,3.91215 c -0.1446565,0.21598 0.00931,0.50609 0.2692555,0.50732 h 0.7663915 l 0.8726931,2.03311 c 0.034192,0.14048 0.1540072,0.24171 0.2953536,0.24952 0.012071,9.1e-4 0.024186,10e-4 0.036283,6.5e-4 h 1.2883524 c 0.1284971,5.9e-4 0.2450543,-0.077 0.2966265,-0.19733 l 0.8949725,-2.08592 h 0.7651184 c 0.261093,7.7e-4 0.417098,-0.29039 0.271801,-0.50732 l -2.607895,-3.91217 c -0.061709,-0.0921 -0.166026,-0.14657 -0.2768938,-0.14449 z m 0.0051,0.9147 1.9993645,2.99747 H 9.8498586 c -0.2321319,0 -0.3230027,0.0889 -0.3940169,0.23997 l -0.8733295,2.03564 H 7.7002706 l -0.6963722,-1.62381 h 0.4850415 c 0.4444085,0.01 0.4444085,-0.66178 0,-0.6518 -0.4573376,-0.0131 -0.9004942,0 -1.3475504,0 z m -3.7485704,4.951 c -1.6160835,0 -2.9325292,1.319 -2.9325292,2.93507 0,0.92044 0.4279592,1.7425 1.0942083,2.28071 H 2.4386497 c -0.626295,0 -1.1425849,0.51375 -1.1425849,1.14005 0,0.50608 0.3395797,0.93398 0.7994913,1.08147 -0.090954,0.16348 -0.1476768,0.34838 -0.1476768,0.54743 0,0.62629 0.5143841,1.14258 1.1406756,1.14258 H 7.000079 c 0.6262915,0 1.1406756,-0.51629 1.1406756,-1.14258 0,-0.50667 -0.3387221,-0.93512 -0.7988549,-1.08212 0.090604,-0.16323 0.1470402,-0.34815 0.1470402,-0.54678 0,-0.6263 -0.5143805,-1.14005 -1.1406755,-1.14005 H 6.2317778 c 0.6669208,-0.53821 1.0954814,-1.36027 1.0954814,-2.28071 0,-1.61607 -1.3189931,-2.93507 -2.9350752,-2.93507 z m 0,0.65181 c 1.2638153,0 2.2832605,1.01944 2.2832605,2.28326 0,1.26383 -1.0194452,2.28071 -2.2832605,2.28071 -1.2638155,0 -2.2807147,-1.01689 -2.2807147,-2.28071 0,-1.26381 1.0168992,-2.28326 2.2807147,-2.28326 z m -0.9834508,0.97454 c -0.08467,0.002 -0.1650322,0.0379 -0.2240612,0.0987 l -0.3246343,0.32718 c -0.3345035,0.30603 0.1521517,0.79472 0.4595801,0.46148 l 0.3271807,-0.32718 c 0.2148762,-0.20758 0.060512,-0.57079 -0.2380653,-0.56015 z m 1.3036293,0.32718 c -0.084448,0.002 -0.1645525,0.0381 -0.2234248,0.0987 l -1.3042657,1.30362 c -0.3189765,0.30806 0.1558385,0.78026 0.4621265,0.45958 l 1.3036291,-1.30172 c 0.2148763,-0.20757 0.060512,-0.57079 -0.2380651,-0.56015 z m 4.8956112,0.002 c -0.6262951,0 -1.140039,0.51376 -1.140039,1.14004 0,0.61082 0.4896806,1.11347 1.0948448,1.13813 -0.073169,0.1501 -0.1183958,0.31617 -0.1183958,0.49331 0,0.17691 0.044787,0.34274 0.1177589,0.49269 -0.6048679,0.0249 -1.0942083,0.52498 -1.0942083,1.13558 0,0.61061 0.4893338,1.11135 1.0942083,1.13622 -0.072972,0.14993 -0.1177589,0.31577 -0.1177589,0.49268 0,0.6263 0.5143838,1.14259 1.1406752,1.14259 h 3.911525 c 0.626292,0 1.140675,-0.51629 1.140675,-1.14259 0,-0.61085 -0.490262,-1.11111 -1.095481,-1.13558 0.07345,-0.15011 0.118398,-0.31616 0.118398,-0.49332 0,-0.17691 -0.04452,-0.34274 -0.117757,-0.49268 0.604929,-0.0248 1.094844,-0.52494 1.094844,-1.13559 0,-0.61106 -0.490597,-1.11207 -1.096118,-1.13621 0.07388,-0.15075 0.119039,-0.31752 0.119039,-0.49523 0,-0.62628 -0.51629,-1.14004 -1.142586,-1.14004 z m 0,0.65182 h 3.9096152 c 0.276463,0 0.49077,0.21176 0.49077,0.48822 0,0.27648 -0.214307,0.49077 -0.49077,0.49077 H 9.6079738 c -0.2764645,0 -0.4882243,-0.21429 -0.4882243,-0.49077 0,-0.27646 0.2117598,-0.48822 0.4882243,-0.48822 z m 0.9770852,1.63081 h 2.93253 0.978995 c 0.27646,0 0.488861,0.21239 0.488861,0.48885 0,0.27646 -0.212401,0.48823 -0.488861,0.48823 H 13.517588 10.58506 c -0.27646,0 -0.488225,-0.21177 -0.488225,-0.48823 0,-0.27646 0.211765,-0.48885 0.488225,-0.48885 z m -8.1464093,1.6289 h 3.9096091 c 0.2764646,0 0.4882244,0.21175 0.4882244,0.48822 0,0.27646 -0.2117598,0.48886 -0.4882244,0.48886 H 3.0885549 2.4386497 c -0.2764631,0 -0.4907704,-0.2124 -0.4907704,-0.48886 0,-0.27647 0.2143073,-0.48822 0.4907704,-0.48822 z m 7.1693241,0 h 3.9096152 c 0.276463,0 0.49077,0.21175 0.49077,0.48822 0,0.27646 -0.214307,0.48886 -0.49077,0.48886 H 9.6079738 c -0.2764645,0 -0.4882243,-0.2124 -0.4882243,-0.48886 0,-0.27647 0.2117598,-0.48822 0.4882243,-0.48822 z m -6.519419,1.6289 h 3.2597095 0.6518146 c 0.276461,0 0.488861,0.21176 0.488861,0.48822 0,0.27647 -0.2124,0.49077 -0.488861,0.49077 h -3.91153 c -0.276461,0 -0.4882244,-0.2143 -0.4882244,-0.49077 0,-0.27646 0.2117634,-0.48822 0.4882244,-0.48822 z m 7.4965042,0 h 2.93253 0.978995 c 0.27646,0 0.488861,0.21176 0.488861,0.48822 0,0.27647 -0.212401,0.49077 -0.488861,0.49077 h -3.91153 c -0.27646,0 -0.488225,-0.2143 -0.488225,-0.49077 0,-0.27646 0.211765,-0.48822 0.488225,-0.48822 z"
       id="rect904"
       inkscape:connector-curvature="0"
       sodipodi:nodetypes="cccccccccccccccccccccccccccsscsscsssscsscsssssssccccccccccccsscscscsssscscscssssssssssscssscssssssscssssssssssscssssssscssssss" />
  </g>
</svg>
