<svg id="Capa_1" data-name="Capa 1" xmlns="http://www.w3.org/2000/svg" viewBox="0 0 612 792"><defs><style>.cls-1{font-size:104.73px;font-family:VAGRundschriftD, VAG Rundschrift D;}.cls-1,.cls-11{fill:#401d09;}.cls-2{letter-spacing:0.09em;}.cls-3{letter-spacing:0.11em;}.cls-4{letter-spacing:0.1em;}.cls-5{letter-spacing:0.01em;}.cls-6{letter-spacing:0em;}.cls-7{letter-spacing:-0.01em;}.cls-8{letter-spacing:0em;}.cls-9{fill:#f25c05;}.cls-10{fill:#8c3503;}</style></defs><text class="cls-1" transform="translate(29.25 373.45)"><tspan class="cls-2">P<tspan class="cls-3" x="67.66" y="0">I</tspan><tspan class="cls-4" x="104.52" y="0">SO</tspan><tspan class="cls-3" x="253.14" y="0">S </tspan></tspan><tspan class="cls-5" x="0" y="100.18">M</tspan><tspan x="86.09" y="100.18">AN</tspan><tspan class="cls-6" x="220.99" y="100.18">R</tspan><tspan x="280.05" y="100.18">I</tspan><tspan class="cls-7" x="305.82" y="100.18">Q</tspan><tspan x="380.91" y="100.18">U</tspan><tspan class="cls-8" x="450.03" y="100.18">E</tspan><tspan x="498.83" y="100.18">Z</tspan></text><polygon class="cls-9" points="344.88 372.4 399.23 296.58 434.49 296.58 451.72 319.51 436.74 339.79 417.25 312.35 373.38 372.4 344.88 372.4"/><polygon class="cls-10" points="445.09 296.58 467.49 296.58 456.29 312.09 445.09 296.58"/><polygon class="cls-10" points="416.99 326.67 432.1 346.69 413.28 372.4 383.85 372.4 416.99 326.67"/><polygon class="cls-11" points="422.82 372.4 477.56 296.58 513.88 296.58 568.36 372.4 538.93 372.4 495.59 312.09 451.72 373.06 422.82 372.4"/><polygon class="cls-9" points="462.19 372.4 475.71 354.11 489.76 372.4 462.19 372.4"/><polygon class="cls-10" points="481.14 346.29 495.59 326.14 529.26 372.4 500.36 372.4 481.14 346.29"/></svg>